<?xml version="1.0" encoding="iso-8859-1"?>
<!-- Uploaded to: SVG Repo, www.svgrepo.com, Generator: SVG Repo Mixer Tools -->
<svg fill="#000000" version="1.1" id="Layer_1" xmlns="http://www.w3.org/2000/svg" xmlns:xlink="http://www.w3.org/1999/xlink" 
	 viewBox="0 0 496 496" xml:space="preserve">
<g>
	<g>
		<g>
			<path d="M440,256c-30.872,0-56,25.128-56,56c0,28.152,20.912,51.456,48,55.36V392c0,13.232-10.768,24-24,24h-40V24H264h-8
				h-30.472C217.016,9.264,201.24,0,184,0s-33.016,9.264-41.528,24H112h-8H0v472h368v-64h40c22.056,0,40-17.944,40-40v-24.64
				c27.088-3.904,48-27.208,48-55.36C496,281.128,470.872,256,440,256z M120,40h32.608l2.096-4.792
				C159.816,23.536,171.312,16,184,16s24.184,7.536,29.296,19.208L215.392,40H248v32H120V40z M264,88V72h56v344H216
				c-10.416,0-19.216-6.712-22.528-16H304V296H192v-16.408c53.608-4.104,96-48.952,96-103.592v-24
				c0-15.328-10.832-28.136-25.24-31.248C259.664,111.072,250.688,104,240,104h-40v48h40c9.96,0,18.512-6.104,22.144-14.768
				C267.92,139.648,272,145.352,272,152v24c0,48.52-39.48,88-88,88s-88-39.48-88-88v-24c0-8.824,7.176-16,16-16h1.472
				c3.312,9.296,12.112,16,22.528,16h40v-48h-40c-10.416,0-19.216,6.712-22.528,16H112c-17.648,0-32,14.352-32,32v24
				c0,54.64,42.392,99.488,96,103.592V296H64v104h112.808c3.72,18.232,19.88,32,39.192,32h104v16H48V72h56v16H264z M192,384v-72h96
				v72H192z M248,128c0,4.416-3.584,8-8,8h-24v-16h24C244.416,120,248,123.584,248,128z M128,128c0-4.416,3.584-8,8-8h24v16h-24
				C131.584,136,128,132.416,128,128z M176,312v72H80v-72H176z M352,480H16V40h88v16H32v408h304v-32h16V480z M352,416h-16V56h-72V40
				h88V416z M440,352c-22.056,0-40-17.944-40-40c0-22.056,17.944-40,40-40c22.056,0,40,17.944,40,40
				C480,334.056,462.056,352,440,352z"/>
			<path d="M440,288c-13.232,0-24,10.768-24,24s10.768,24,24,24s24-10.768,24-24S453.232,288,440,288z M440,320
				c-4.416,0-8-3.584-8-8c0-4.416,3.584-8,8-8c4.416,0,8,3.584,8,8C448,316.416,444.416,320,440,320z"/>
			<path d="M440,240c17.648,0,32-14.352,32-32V45.336L440,2.664l-32,42.672V208C408,225.648,422.352,240,440,240z M440,29.336
				L454,48h-28L440,29.336z M424,64h32v88h-32V64z M424,168h32v16h-32V168z M424,200h32v8c0,8.824-7.184,16-16,16
				c-8.824,0-16-7.176-16-16V200z"/>
			<rect x="256" y="352" width="16" height="16"/>
			<rect x="208" y="352" width="32" height="16"/>
		</g>
	</g>
</g>
</svg>