<?xml version="1.0" ?><!-- Uploaded to: SVG Repo, www.svgrepo.com, Generator: SVG Repo Mixer Tools -->
<svg fill="#000000" width="800px" height="800px" viewBox="0 0 512 512" id="Non-chemical_dietary_supplement" xmlns="http://www.w3.org/2000/svg"><path d="M452.5791,371.1255H306.0518a36.5205,36.5205,0,0,0,0,73.041H452.5791a36.5205,36.5205,0,1,0,0-73.041ZM281.5313,407.646a24.5485,24.5485,0,0,1,24.5205-24.5205h73.812v49.041h-73.812A24.5485,24.5485,0,0,1,281.5313,407.646Z"/><path d="M308.1382,226.4905a17.0231,17.0231,0,0,1,3.541-3.2227,94.0279,94.0279,0,0,1-5.0171-124.1755,5.9425,5.9425,0,0,0,1.1421,1.4531l48.4448,43.8027c-12.8232,14.5591-24.8188,28.1783-24.8188,28.1783a10.3765,10.3765,0,0,0,.9306,14.6447l9.3365,8.2205L326.3149,212.87a5.5,5.5,0,0,0,8.2579,7.2676l15.3808-17.4761,9.3389,8.2227a10.3757,10.3757,0,0,0,14.6445-.9309S385.6221,196.68,398.2554,182.33l13.2509,11.9814a6,6,0,1,0,8.0489-8.9l-13.37-12.0891c9.7016-11.02,18.6337-21.1672,21.852-24.8242a1.7813,1.7813,0,0,1,2.5176-.156l1.7236,1.5161a3.3935,3.3935,0,0,0,4.7891-.3071l3.8769-4.4082a3.3933,3.3933,0,0,0-.3071-4.7891L420.4517,122.6l6.4487-7.3237,9.0688,7.9853a5.5,5.5,0,0,0,7.27-8.2558L416.8481,91.7681a5.5,5.5,0,1,0-7.2695,8.2558l9.0659,7.9824-6.4526,7.3284L391.9463,97.5281a3.3926,3.3926,0,0,0-4.7886.3069l-3.8774,4.4082a3.3932,3.3932,0,0,0,.3071,4.789l1.773,1.5594a1.7809,1.7809,0,0,1,.165,2.5183c-3.1641,3.5922-11.8418,13.4445-21.3442,24.2326L315.853,91.645a5.9349,5.9349,0,0,0-1.4951-.96A94.1605,94.1605,0,0,1,453.9048,216.5134L436.21,200.4673a6,6,0,0,0-8.0606,8.8887l17.7466,16.0927a94.0921,94.0921,0,0,1-97.9575,21.5105,84.44,84.44,0,0,1,5.7793,14.3133,106.4528,106.4528,0,1,0-50.03-29.021C305.2046,230.1675,306.7065,228.2363,308.1382,226.4905ZM380.53,134.1558l6.8139,6,7.27-8.2559-6.814-6,2.0806-2.3625a4.4853,4.4853,0,0,1,6.33-.4026l18.5245,16.3106a4.4853,4.4853,0,0,1,.4023,6.33L397.665,165.6182l-24.9633-22.5718Zm-15.76,17.8972,24.9634,22.5718L369.0132,198.156a4.4856,4.4856,0,0,1-6.3306.4023l-18.5244-16.31a4.4859,4.4859,0,0,1-.4023-6.3305l5.206-5.9121,7.2036,6.3427,7.27-8.2558-7.2037-6.3425Z"/><path d="M315.8706,232.8315c-6.3345,7.7242-16.3247,22.0181-19.0791,38.09-.229,1.09-.5366,4.77-.5366,5.1636a25.0142,25.0142,0,0,0,50.0283,0c0-.3931-.3076-4.0735-.5366-5.1636-2.7544-16.0718-12.7446-30.3657-19.0791-38.09A6.9747,6.9747,0,0,0,315.8706,232.8315Zm12.8315,52.7232c-2.1606,4.6077-8.86,6.0227-14.9624,3.1606s-9.2983-8.917-7.1376-13.5244,8.8593-6.0224,14.9624-3.1606S330.8628,280.9473,328.7021,285.5547Z"/><path d="M235.0625,247.4009l-.3623-.1992a34.4638,34.4638,0,0,1-17.4883-25.4473c-.022-.1624-.0552-.32-.09-.4775,9.0005-5.0911,14.4482-11.4742,14.4482-19.1075V170.6538c0-22.2207-46.1631-33.8467-91.7646-33.8467S48.042,148.4331,48.042,170.6538v31.5156c0,7.6236,5.4341,14,14.4141,19.0874a34.1649,34.1649,0,0,1-17.5577,25.9517l-.3408.1885A41.7558,41.7558,0,0,0,22.9,284.0005v125.166c0,14.5566,12.87,27.7637,36.2392,37.1865,21.6436,8.7266,50.292,13.5332,80.6661,13.5332s59.0224-4.8066,80.666-13.5332c23.37-9.4228,36.24-22.63,36.24-37.1865V284.0005A41.7514,41.7514,0,0,0,235.0625,247.4009ZM60.042,202.1694V170.6538c0-3.5713,6.4853-9.2793,20.9726-13.9834,15.6163-5.0713,36.4952-7.8633,58.7911-7.8633s43.1757,2.792,58.792,7.8633c14.4873,4.7041,20.9726,10.4121,20.9726,13.9834v31.5156c0,3.5713-6.4853,9.28-20.9726,13.9844-15.6163,5.07-36.4952,7.8633-58.792,7.8633s-43.1748-2.793-58.7911-7.8633C66.5273,211.45,60.042,205.7407,60.042,202.1694Zm184.67,206.9971c0,9.1982-10.4707,18.6953-28.7275,26.0566-20.251,8.1661-47.3047,12.6631-76.1787,12.6631C77.9834,447.8862,34.9,427.48,34.9,409.1665V284.0005a29.763,29.763,0,0,1,15.4473-26.0928l.3408-.1885a46.0886,46.0886,0,0,0,23.0908-31.3484c17.5283,6.3792,41.8555,9.6463,66.0264,9.6463,24.1743,0,48.5048-3.2676,66.0337-9.6484a46.527,46.527,0,0,0,23.0776,31.3466l.3613.1993a29.7583,29.7583,0,0,1,15.4336,26.0859Z"/><ellipse cx="139.8062" cy="172.0665" rx="61.2695" ry="16.3917"/><path d="M138.6592,367.5208l.01.0017a5.0422,5.0422,0,0,0,.5323.0481,4.29,4.29,0,0,1-.5318-.05Z"/><path d="M184.8589,292.9705a244.4208,244.4208,0,0,1-44.5737,4.3181A248.879,248.879,0,0,1,95.28,292.938a14.3507,14.3507,0,0,0-16.9746,14.1565l.18,74.749a14.3926,14.3926,0,0,0,9.27,13.3958c9.9629,3.82,27.7842,8.8537,52.53,8.8537,24.71,0,42.5156-5.0185,52.4868-8.8371a14.3871,14.3871,0,0,0,9.269-13.4649l-.1806-74.7388A14.3518,14.3518,0,0,0,184.8589,292.9705ZM132.3,334.2292c-5.8237,10.6517-6.331,21.9183-5.7163,29.4876.0186.2168.0381.4424.0659.66-22.25-8.835-25.456-30.4546-25.6557-40.7491a4.956,4.956,0,0,1,5.6147-5.038c13.2178,1.8767,21.9014,6.6455,27.5835,12.5144C133.5225,332.1035,132.8916,333.1421,132.3,334.2292Zm12.1475,32.6678v12.7688a4.4014,4.4014,0,0,1-8.8028,0s-.2754-16.169-.3144-16.6521c-.9229-11.5237.8213-39.1917,37.6738-44.4243a4.9559,4.9559,0,0,1,5.6148,5.038C178.3955,335.114,174.44,360.707,144.4473,366.897Z"/></svg>