<?xml version="1.0" encoding="iso-8859-1"?>
<!-- Uploaded to: SVG Repo, www.svgrepo.com, Generator: SVG Repo Mixer Tools -->
<svg version="1.1" id="Layer_1" xmlns="http://www.w3.org/2000/svg" xmlns:xlink="http://www.w3.org/1999/xlink" 
	 viewBox="0 0 512 512" xml:space="preserve">
<path style="fill:#00A1A7;" d="M274.453,33.357l-0.167-2.881H256l0,0h-18.286l-0.167,2.881c-24.575,7.867-42.5,30.974-42.5,58.072
	l0,0c0,18.501,8.359,35.137,21.483,46.335c8.86,7.559,13.881,18.672,13.207,30.299l-16.405,301.271
	C213.333,492.898,232.436,512,256,512c23.564,0,42.667-19.102,42.667-42.667l-16.405-301.271
	c-0.674-11.627,4.347-22.74,13.207-30.299c13.124-11.198,21.483-27.833,21.483-46.335l0,0
	C316.952,64.33,299.028,41.223,274.453,33.357z"/>
<path style="fill:#006C70;" d="M295.469,137.763c13.124-11.198,21.483-27.833,21.483-46.335c0-27.098-17.925-50.205-42.5-58.072
	l-0.167-2.881H256l0,0V512c23.564,0,42.667-19.102,42.667-42.667l-16.405-301.271C281.588,156.436,286.609,145.323,295.469,137.763z
	"/>
<rect x="128" style="fill:#CCF7F9;" width="256" height="73.143"/>
<rect x="256" style="fill:#00D7DF;" width="128" height="73.143"/>
</svg>