<?xml version="1.0" standalone="no"?>
<!DOCTYPE svg PUBLIC "-//W3C//DTD SVG 20010904//EN"
 "http://www.w3.org/TR/2001/REC-SVG-20010904/DTD/svg10.dtd">
<svg version="1.0" xmlns="http://www.w3.org/2000/svg"
 width="750.000000pt" height="750.000000pt" viewBox="0 0 750.000000 750.000000"
 preserveAspectRatio="xMidYMid meet">

<g transform="translate(0.000000,750.000000) scale(0.100000,-0.100000)"
fill="#000000" stroke="none">
<path d="M2153 7025 c-142 -32 -269 -132 -329 -259 -38 -79 -53 -168 -54 -307
l0 -86 -167 -6 c-93 -3 -200 -13 -239 -21 -271 -57 -491 -261 -586 -541 l-23
-70 -3 -2285 c-3 -2479 -5 -2360 51 -2500 39 -94 86 -167 161 -247 116 -123
262 -205 421 -235 57 -10 510 -13 2385 -13 2586 0 2389 -5 2547 69 224 106
373 282 440 517 17 61 18 167 18 2364 0 2218 -1 2303 -19 2370 -63 236 -212
413 -439 521 -101 47 -185 63 -383 71 l-171 6 -6 131 c-9 198 -48 299 -152
400 -192 184 -494 173 -678 -23 -94 -100 -127 -200 -127 -383 l0 -128 -1035 0
-1035 0 0 118 c0 185 -33 287 -124 389 -114 126 -293 185 -453 148z m207 -226
c58 -26 96 -62 128 -124 l27 -50 3 -343 c4 -392 0 -417 -67 -494 -52 -59 -126
-92 -203 -91 -109 0 -220 82 -248 181 -6 22 -10 178 -10 390 0 385 0 386 60
462 67 84 207 116 310 69z m3039 -5 c60 -30 113 -95 131 -159 7 -27 10 -158 8
-401 l-3 -361 -30 -49 c-59 -94 -176 -146 -280 -123 -98 22 -184 105 -204 199
-18 82 -15 674 4 736 45 153 229 230 374 158z m-3629 -736 c1 -208 42 -330
147 -435 69 -68 140 -106 243 -129 181 -41 378 42 487 204 61 91 75 143 80
310 l5 142 1034 0 1034 0 0 -123 c0 -196 42 -310 152 -412 192 -178 478 -173
662 12 105 104 146 229 146 446 l0 77 155 0 c179 0 233 -9 334 -57 93 -44 205
-151 249 -238 61 -121 65 -147 70 -432 l4 -263 -2806 0 -2806 0 0 243 c0 211
3 254 20 322 42 162 147 292 298 367 94 47 149 56 330 57 l162 1 0 -92z m4800
-2990 c0 -2067 3 -1951 -61 -2085 -68 -143 -238 -273 -394 -303 -44 -8 -696
-10 -2385 -8 l-2325 3 -67 26 c-189 73 -323 228 -363 417 -12 57 -15 356 -15
1950 l0 1882 2805 0 2805 0 0 -1882z"/>
<path d="M3372 3969 c-85 -14 -172 -48 -249 -95 -82 -51 -217 -188 -205 -209
22 -38 180 -204 195 -204 9 -1 17 3 17 7 0 17 102 121 147 150 74 46 137 63
235 63 114 0 182 -28 225 -92 25 -38 28 -51 28 -128 0 -152 -39 -199 -364
-434 -397 -287 -460 -384 -461 -704 l0 -133 580 0 580 0 0 145 0 145 -397 2
-398 3 4 30 c9 81 59 133 265 277 349 244 462 358 518 524 53 156 19 361 -79
478 -72 86 -205 155 -343 176 -77 12 -224 11 -298 -1z"/>
<path d="M4930 3966 c-170 -37 -287 -108 -377 -229 -120 -162 -173 -365 -173
-667 0 -242 29 -392 106 -548 53 -108 140 -208 227 -260 122 -74 288 -106 466
-90 339 30 556 269 611 675 18 133 8 451 -19 565 -27 116 -72 222 -131 306
-82 116 -172 182 -315 228 -100 32 -291 42 -395 20z m238 -291 c126 -17 213
-118 259 -300 26 -104 26 -487 -1 -600 -35 -152 -90 -236 -184 -282 -50 -25
-68 -28 -152 -28 -106 1 -158 18 -221 73 -44 38 -92 134 -116 228 -26 102 -26
508 0 609 36 142 95 233 180 276 38 20 135 39 172 33 11 -1 40 -5 63 -9z"/>
<path d="M2075 3920 c-79 -45 -200 -91 -325 -124 l-85 -23 -3 -146 -3 -147 23
0 c44 1 196 39 274 69 43 17 87 31 97 31 16 0 17 -33 17 -550 l0 -550 -215 0
-215 0 0 -145 0 -145 575 0 575 0 0 145 0 145 -190 0 -190 0 0 740 0 740 -132
0 -133 -1 -70 -39z"/>
</g>
</svg>
