<?xml version="1.0" standalone="no"?>
<!DOCTYPE svg PUBLIC "-//W3C//DTD SVG 20010904//EN"
 "http://www.w3.org/TR/2001/REC-SVG-20010904/DTD/svg10.dtd">
<svg version="1.0" xmlns="http://www.w3.org/2000/svg"
 width="750.000000pt" height="750.000000pt" viewBox="0 0 750.000000 750.000000"
 preserveAspectRatio="xMidYMid meet">

<g transform="translate(0.000000,750.000000) scale(0.100000,-0.100000)"
fill="#000000" stroke="none">
<path d="M2153 7025 c-142 -32 -269 -132 -329 -259 -38 -79 -53 -168 -54 -307
l0 -86 -167 -6 c-93 -3 -200 -13 -239 -21 -271 -57 -491 -261 -586 -541 l-23
-70 -3 -2285 c-3 -2479 -5 -2360 51 -2500 39 -94 86 -167 161 -247 116 -123
262 -205 421 -235 57 -10 510 -13 2385 -13 2586 0 2389 -5 2547 69 224 106
373 282 440 517 17 61 18 167 18 2364 0 2218 -1 2303 -19 2370 -63 236 -212
413 -439 521 -101 47 -185 63 -383 71 l-171 6 -6 131 c-9 198 -48 299 -152
400 -192 184 -494 173 -678 -23 -94 -100 -127 -200 -127 -383 l0 -128 -1035 0
-1035 0 0 118 c0 185 -33 287 -124 389 -114 126 -293 185 -453 148z m207 -226
c58 -26 96 -62 128 -124 l27 -50 3 -343 c4 -392 0 -417 -67 -494 -52 -59 -126
-92 -203 -91 -109 0 -220 82 -248 181 -6 22 -10 178 -10 390 0 385 0 386 60
462 67 84 207 116 310 69z m3039 -5 c60 -30 113 -95 131 -159 7 -27 10 -158 8
-401 l-3 -361 -30 -49 c-59 -94 -176 -146 -280 -123 -98 22 -184 105 -204 199
-18 82 -15 674 4 736 45 153 229 230 374 158z m-3629 -736 c1 -208 42 -330
147 -435 69 -68 140 -106 243 -129 181 -41 378 42 487 204 61 91 75 143 80
310 l5 142 1034 0 1034 0 0 -123 c0 -196 42 -310 152 -412 192 -178 478 -173
662 12 105 104 146 229 146 446 l0 77 155 0 c179 0 233 -9 334 -57 93 -44 205
-151 249 -238 61 -121 65 -147 70 -432 l4 -263 -2806 0 -2806 0 0 243 c0 211
3 254 20 322 42 162 147 292 298 367 94 47 149 56 330 57 l162 1 0 -92z m4800
-2990 c0 -2067 3 -1951 -61 -2085 -68 -143 -238 -273 -394 -303 -44 -8 -696
-10 -2385 -8 l-2325 3 -67 26 c-189 73 -323 228 -363 417 -12 57 -15 356 -15
1950 l0 1882 2805 0 2805 0 0 -1882z"/>
<path d="M2675 3965 c-225 -47 -394 -208 -446 -425 -19 -78 -16 -260 5 -339
52 -195 188 -333 367 -376 73 -17 213 -19 277 -5 100 23 195 90 249 175 15 25
33 43 38 41 16 -5 6 -189 -16 -274 -27 -109 -62 -174 -121 -227 -149 -134
-416 -80 -480 97 -5 14 -16 29 -23 32 -8 3 -75 -22 -149 -56 l-135 -61 19 -48
c45 -120 120 -206 228 -262 93 -48 190 -68 336 -68 215 0 345 50 476 181 84
83 132 165 175 295 73 224 83 575 24 825 -58 249 -217 422 -444 485 -84 23
-290 28 -380 10z m286 -297 c118 -40 181 -136 181 -276 1 -132 -44 -215 -144
-266 -103 -52 -257 -38 -338 31 -75 65 -108 174 -89 295 19 116 77 188 179
219 39 12 174 10 211 -3z"/>
<path d="M4435 3974 c-11 -2 -45 -9 -75 -15 -30 -6 -93 -29 -140 -51 -222
-106 -351 -343 -381 -702 -17 -210 10 -452 67 -605 107 -285 324 -432 639
-432 406 0 646 235 705 691 14 112 12 342 -5 455 -56 374 -238 592 -543 651
-68 13 -219 17 -267 8z m269 -324 c60 -28 120 -98 147 -169 45 -120 53 -184
53 -411 0 -188 -3 -226 -22 -302 -38 -153 -96 -238 -191 -281 -69 -32 -216
-31 -288 2 -129 58 -193 195 -214 458 -13 158 1 348 33 467 28 105 85 190 154
228 89 50 235 53 328 8z"/>
</g>
</svg>
