<?xml version="1.0" encoding="utf-8"?><!-- Uploaded to: SVG Repo, www.svgrepo.com, Generator: SVG Repo Mixer Tools -->
<svg width="800px" height="800px" viewBox="0 0 960 960" fill="none" xmlns="http://www.w3.org/2000/svg">
<path d="M732.492 540.424C797.81 360.749 639.109 215.93 462.929 239.001C318.01 251.985 173.89 418.876 247.198 561.698C261.88 587.665 309.421 643.296 335.288 602.846C343.378 573.782 325.301 543.62 324.702 514.157C301.73 400.799 415.089 306.916 523.054 318.102C624.627 326.691 668.672 451.435 640.707 538.527C625.725 593.458 571.193 650.686 509.87 630.711C492.292 624.819 485.301 610.636 482.305 593.758C473.915 534.532 517.361 474.806 491.992 417.078C464.627 357.753 385.326 397.603 388.222 452.334C397.511 537.328 371.943 618.626 346.774 698.726C329.296 753.857 320.906 811.086 315.713 868.614C315.613 869.313 310.12 871.211 309.72 872.309L384.227 875.605C413.79 806.791 433.865 736.978 451.643 665.368C554.814 746.866 694.739 645.693 732.492 540.424Z" fill="white"/>
<path d="M866.326 321.596C866.826 227.214 808.798 134.93 718.711 102.57C643.804 73.9061 582.082 81.6964 482.606 80.398C439.16 79.8986 395.515 80.0984 351.969 82.4954C307.525 85.991 260.583 88.4879 218.836 106.266C114.067 158.001 93.2926 285.542 89.0978 391.209C84.4037 468.912 85.8019 546.915 90.2963 624.718C92.5934 676.053 99.6846 729.087 128.748 773.032C139.435 791.809 153.118 806.99 168.798 819.574C202.456 846.44 245.402 860.623 288.748 869.012C294.641 870.211 300.633 871.209 306.526 872.208C310.221 873.207 313.617 872.608 315.015 870.51C315.315 870.011 315.615 869.412 315.615 868.812C320.808 811.284 329.198 754.056 346.676 698.825C371.844 618.625 397.412 537.427 388.124 452.433C385.228 397.701 464.529 357.851 491.894 417.177C517.363 474.905 473.817 534.73 482.206 593.856C485.203 610.735 492.194 624.917 509.772 630.81C571.095 650.785 625.527 593.656 640.608 538.625C668.574 451.534 624.429 326.79 522.956 318.201C415.09 306.915 301.732 400.797 324.803 514.056C325.402 543.519 343.48 573.681 335.39 602.745C309.522 643.195 261.982 587.564 247.3 561.596C173.992 418.875 318.211 251.884 463.03 238.9C639.11 215.929 797.812 360.648 732.494 540.423C694.741 645.691 554.816 746.865 451.545 665.467C433.867 737.077 409.797 805.991 380.234 874.106C380.034 874.605 379.834 875.105 379.635 875.604C409.198 877.901 438.961 879 468.723 879.199C530.546 879.599 592.668 876.203 654.291 872.308C698.936 871.709 735.19 861.122 764.354 843.145C841.258 795.804 869.023 697.427 871.819 594.755C873.817 503.669 872.019 412.383 866.326 321.596Z" fill="#000000"/>
</svg>